<svg width="230" height="261" viewBox="0 0 230 261" fill="none" xmlns="http://www.w3.org/2000/svg">
<rect x="2.76263" y="0.566986" width="227" height="258" rx="15" transform="rotate(0.595173 2.76263 0.566986)" fill="url(#paint0_linear_32_647)"/>
<path d="M80.749 114.957L91.5771 104.129C91.8956 103.81 92.0745 103.378 92.0745 102.927V88.0584C92.0745 85.7128 90.173 83.8113 87.8274 83.8113C85.4819 83.8113 83.5804 85.7128 83.5804 88.0584V100.8" stroke="white" stroke-width="3" stroke-linecap="round" stroke-linejoin="round"/>
<path d="M80.7489 103.631L83.1786 101.201C83.4359 100.944 83.5803 100.595 83.5803 100.232C83.5803 99.7121 83.2867 99.2373 82.8221 99.0049L81.5681 98.378C79.3882 97.2879 76.755 97.7152 75.0315 99.4386L72.4977 101.972C71.4356 103.035 70.8391 104.475 70.8391 105.977V114.957" stroke="white" stroke-width="3" stroke-linecap="round" stroke-linejoin="round"/>
<path d="M46.7722 114.957L35.9442 104.129C35.6256 103.81 35.4467 103.378 35.4467 102.927V88.0584C35.4467 85.7128 37.3481 83.8113 39.6937 83.8113C42.0394 83.8113 43.9408 85.7128 43.9408 88.0584V100.8" stroke="white" stroke-width="3" stroke-linecap="round" stroke-linejoin="round"/>
<path d="M46.7722 103.631L44.3425 101.201C44.0853 100.944 43.9408 100.595 43.9408 100.232C43.9408 99.7121 44.2343 99.2373 44.6989 99.0049L45.953 98.378C48.1331 97.2879 50.7661 97.7152 52.4897 99.4386L55.0235 101.972C56.0855 103.035 56.6821 104.475 56.6821 105.977V114.957" stroke="white" stroke-width="3" stroke-linecap="round" stroke-linejoin="round"/>
<path d="M68.4796 92.3055H59.0414V85.6989H52.4349V76.2609H59.0414V69.6543H68.4796V76.2609H75.0861V85.6989H68.4796V92.3055Z" stroke="white" stroke-width="3" stroke-linecap="round" stroke-linejoin="round"/>
<path d="M39.5336 137.037C39.4558 136.317 39.116 135.754 38.5141 135.35C37.9122 134.946 37.1709 134.74 36.2903 134.731C35.6464 134.724 35.0819 134.822 34.5968 135.026C34.1164 135.229 33.7394 135.512 33.4658 135.873C33.1969 136.235 33.06 136.648 33.0552 137.112C33.0511 137.5 33.14 137.835 33.3217 138.116C33.5083 138.393 33.7473 138.625 34.039 138.813C34.3306 138.996 34.6368 139.148 34.9576 139.27C35.2783 139.387 35.5733 139.482 35.8424 139.556L37.3155 139.969C37.6932 140.072 38.1132 140.214 38.5753 140.394C39.0423 140.574 39.4872 140.818 39.9102 141.125C40.3379 141.428 40.689 141.815 40.9635 142.287C41.238 142.758 41.3717 143.335 41.3646 144.017C41.3564 144.803 41.1431 145.511 40.7246 146.141C40.3108 146.771 39.709 147.269 38.9192 147.635C38.1341 148.001 37.1829 148.178 36.0655 148.167C35.0239 148.156 34.1237 147.978 33.3649 147.634C32.6109 147.29 32.0192 146.815 31.5898 146.209C31.1652 145.604 30.9287 144.903 30.8801 144.107L32.6982 144.126C32.7398 144.675 32.9198 145.132 33.238 145.495C33.561 145.854 33.9701 146.123 34.4654 146.303C34.9655 146.479 35.5044 146.57 36.082 146.576C36.7543 146.583 37.3591 146.48 37.8964 146.268C38.4337 146.051 38.8607 145.748 39.1772 145.358C39.4938 144.963 39.6549 144.501 39.6604 143.971C39.6654 143.488 39.5346 143.093 39.2678 142.788C39.0011 142.482 38.6486 142.232 38.2102 142.038C37.7719 141.844 37.2978 141.673 36.7879 141.526L35.0036 140.996C33.8707 140.658 32.9759 140.182 32.3194 139.569C31.6628 138.956 31.3396 138.16 31.3498 137.18C31.3583 136.365 31.5858 135.657 32.0324 135.056C32.4838 134.45 33.0853 133.982 33.8369 133.654C34.5932 133.321 35.4354 133.159 36.3633 133.169C37.3008 133.179 38.1323 133.355 38.858 133.699C39.5837 134.038 40.1566 134.499 40.5767 135.081C41.0015 135.663 41.222 136.321 41.238 137.055L39.5336 137.037ZM50.913 143.605L50.98 137.156L52.6561 137.174L52.5428 148.082L50.8667 148.065L50.8859 146.218L50.7723 146.217C50.5108 146.768 50.1082 147.235 49.5645 147.618C49.0207 147.996 48.337 148.18 47.5131 148.172C46.8314 148.165 46.2269 148.009 45.6997 147.706C45.1726 147.397 44.7607 146.938 44.4639 146.329C44.1673 145.715 44.0238 144.944 44.0334 144.016L44.1054 137.085L45.7814 137.102L45.7106 143.92C45.7024 144.715 45.9183 145.352 46.3584 145.83C46.8033 146.308 47.3737 146.551 48.0697 146.558C48.4864 146.563 48.9112 146.46 49.3443 146.252C49.7821 146.043 50.15 145.72 50.4481 145.283C50.751 144.846 50.906 144.286 50.913 143.605ZM55.5701 152.205L55.7259 137.205L57.3451 137.222L57.3271 138.955L57.526 138.957C57.651 138.769 57.824 138.529 58.0448 138.238C58.2704 137.942 58.5904 137.68 59.0047 137.453C59.4238 137.22 59.9885 137.108 60.6987 137.115C61.6172 137.125 62.4244 137.363 63.1204 137.829C63.8163 138.296 64.3564 138.952 64.7406 139.799C65.1248 140.646 65.311 141.642 65.2991 142.788C65.2871 143.943 65.0802 144.943 64.6784 145.786C64.2767 146.625 63.7254 147.273 63.0246 147.729C62.3239 148.181 61.519 148.403 60.6099 148.393C59.9092 148.386 59.3494 148.264 58.9304 148.028C58.5115 147.787 58.1899 147.516 57.9658 147.215C57.7417 146.91 57.5691 146.657 57.448 146.457L57.306 146.455L57.2461 152.222L55.5701 152.205ZM57.3168 142.677C57.3083 143.501 57.4215 144.229 57.6564 144.861C57.8914 145.488 58.239 145.982 58.6993 146.342C59.1597 146.697 59.726 146.878 60.3983 146.885C61.099 146.892 61.6857 146.714 62.1582 146.349C62.6356 145.98 62.9959 145.482 63.2391 144.855C63.4872 144.223 63.6153 143.519 63.6233 142.742C63.6313 141.975 63.5201 141.283 63.2898 140.665C63.0642 140.042 62.7166 139.549 62.2469 139.184C61.7819 138.814 61.1944 138.626 60.4842 138.619C59.8024 138.612 59.2277 138.778 58.7601 139.119C58.2926 139.455 57.9373 139.93 57.6942 140.543C57.4511 141.151 57.3253 141.862 57.3168 142.677ZM67.7569 152.331L67.9127 137.332L69.5319 137.349L69.5139 139.082L69.7128 139.084C69.8379 138.896 70.0108 138.656 70.2317 138.365C70.4573 138.069 70.7773 137.807 71.1916 137.579C71.6107 137.347 72.1753 137.234 72.8855 137.242C73.804 137.251 74.6113 137.489 75.3072 137.956C76.0032 138.422 76.5432 139.079 76.9275 139.926C77.3117 140.773 77.4978 141.769 77.4859 142.915C77.4739 144.07 77.267 145.069 76.8653 145.913C76.4635 146.751 75.9123 147.399 75.2115 147.856C74.5107 148.308 73.7058 148.529 72.7968 148.52C72.096 148.512 71.5362 148.391 71.1172 148.154C70.6983 147.913 70.3768 147.642 70.1526 147.342C69.9285 147.036 69.7559 146.784 69.6349 146.583L69.4929 146.582L69.4329 152.349L67.7569 152.331ZM69.5037 142.803C69.4951 143.627 69.6083 144.355 69.8432 144.987C70.0782 145.615 70.4258 146.109 70.8861 146.469C71.3465 146.824 71.9128 147.005 72.5851 147.012C73.2859 147.019 73.8725 146.841 74.3451 146.476C74.8224 146.107 75.1827 145.609 75.426 144.982C75.674 144.35 75.8021 143.645 75.8102 142.869C75.8181 142.102 75.707 141.409 75.4766 140.791C75.2511 140.169 74.9034 139.675 74.4337 139.31C73.9688 138.941 73.3812 138.753 72.671 138.745C71.9892 138.738 71.4146 138.905 70.947 139.246C70.4794 139.582 70.1241 140.056 69.881 140.669C69.6379 141.278 69.5122 141.989 69.5037 142.803ZM84.4155 148.64C83.4307 148.63 82.569 148.387 81.8306 147.91C81.0968 147.434 80.526 146.772 80.1181 145.925C79.715 145.078 79.5193 144.091 79.531 142.964C79.5428 141.828 79.759 140.838 80.1797 139.995C80.6052 139.152 81.1897 138.5 81.9331 138.039C82.6813 137.578 83.5478 137.352 84.5326 137.363C85.5174 137.373 86.3767 137.616 87.1104 138.093C87.8489 138.569 88.4196 139.233 88.8227 140.085C89.2306 140.937 89.4286 141.931 89.4168 143.067C89.4051 144.194 89.1865 145.177 88.7611 146.015C88.3405 146.853 87.756 147.503 87.0078 147.964C86.2644 148.425 85.4003 148.651 84.4155 148.64ZM84.4311 147.135C85.1792 147.143 85.7967 146.957 86.2836 146.579C86.7705 146.2 87.1332 145.7 87.3717 145.077C87.6101 144.455 87.7332 143.779 87.7408 143.05C87.7483 142.321 87.6394 141.64 87.4139 141.008C87.1885 140.376 86.8363 139.863 86.3574 139.47C85.8785 139.077 85.265 138.876 84.517 138.868C83.7689 138.86 83.1514 139.048 82.6644 139.431C82.1775 139.815 81.8147 140.32 81.5762 140.947C81.3376 141.574 81.2146 142.253 81.207 142.982C81.1994 143.711 81.3084 144.389 81.5339 145.017C81.7594 145.644 82.1116 146.152 82.5906 146.54C83.0695 146.929 83.683 147.127 84.4311 147.135ZM91.9192 148.491L92.0325 137.583L93.6517 137.599L93.6346 139.247L93.7483 139.248C93.9527 138.711 94.3171 138.276 94.8414 137.946C95.3657 137.615 95.9545 137.453 96.6079 137.46C96.731 137.461 96.8848 137.465 97.0694 137.472C97.254 137.478 97.3936 137.487 97.4882 137.497L97.4705 139.202C97.4139 139.187 97.2839 139.164 97.0806 139.134C96.8821 139.099 96.6716 139.08 96.449 139.077C95.9188 139.072 95.4441 139.178 95.0252 139.396C94.611 139.61 94.2812 139.91 94.0357 140.295C93.795 140.676 93.6721 141.113 93.6669 141.605L93.5952 148.509L91.9192 148.491ZM104.901 137.716L104.886 139.137L99.2333 139.078L99.248 137.658L104.901 137.716ZM100.923 135.061L102.599 135.079L102.491 145.476C102.486 145.949 102.551 146.305 102.686 146.543C102.825 146.777 103.004 146.935 103.221 147.018C103.442 147.096 103.676 147.136 103.923 147.138C104.107 147.14 104.259 147.132 104.377 147.115C104.496 147.092 104.591 147.074 104.662 147.061L104.987 148.57C104.873 148.611 104.714 148.652 104.51 148.693C104.306 148.738 104.048 148.759 103.735 148.756C103.262 148.751 102.799 148.644 102.346 148.436C101.899 148.228 101.528 147.914 101.234 147.494C100.945 147.074 100.803 146.547 100.81 145.913L100.923 135.061ZM114.761 134.182L114.61 148.727L112.934 148.709L113.085 134.165L114.761 134.182ZM122.109 149.032C121.124 149.022 120.262 148.778 119.524 148.302C118.79 147.826 118.219 147.164 117.811 146.317C117.408 145.47 117.213 144.483 117.224 143.356C117.236 142.22 117.452 141.23 117.873 140.387C118.298 139.544 118.883 138.891 119.626 138.43C120.375 137.969 121.241 137.744 122.226 137.754C123.211 137.764 124.07 138.008 124.804 138.484C125.542 138.961 126.113 139.625 126.516 140.476C126.924 141.328 127.122 142.322 127.11 143.459C127.098 144.586 126.88 145.568 126.454 146.407C126.034 147.245 125.449 147.895 124.701 148.356C123.958 148.817 123.094 149.042 122.109 149.032ZM122.124 147.526C122.872 147.534 123.49 147.349 123.977 146.97C124.464 146.592 124.826 146.091 125.065 145.469C125.303 144.846 125.426 144.17 125.434 143.441C125.442 142.712 125.333 142.032 125.107 141.399C124.882 140.767 124.53 140.255 124.051 139.861C123.572 139.468 122.958 139.268 122.21 139.26C121.462 139.252 120.845 139.44 120.358 139.823C119.871 140.206 119.508 140.711 119.269 141.339C119.031 141.966 118.908 142.644 118.9 143.373C118.893 144.103 119.002 144.781 119.227 145.408C119.453 146.036 119.805 146.543 120.284 146.932C120.763 147.321 121.376 147.519 122.124 147.526ZM134.042 149.156C133.019 149.145 132.141 148.895 131.407 148.404C130.674 147.914 130.112 147.242 129.724 146.391C129.335 145.539 129.146 144.569 129.157 143.48C129.169 142.372 129.382 141.396 129.798 140.553C130.219 139.705 130.799 139.046 131.538 138.575C132.281 138.1 133.146 137.868 134.13 137.878C134.897 137.886 135.587 138.035 136.2 138.326C136.812 138.616 137.312 139.019 137.7 139.534C138.088 140.05 138.325 140.649 138.413 141.332L136.737 141.314C136.614 140.816 136.335 140.373 135.898 139.984C135.467 139.592 134.882 139.391 134.143 139.384C133.49 139.377 132.915 139.541 132.419 139.877C131.928 140.208 131.542 140.68 131.261 141.293C130.985 141.901 130.842 142.617 130.834 143.441C130.825 144.283 130.95 145.019 131.209 145.646C131.472 146.274 131.846 146.763 132.33 147.114C132.819 147.465 133.394 147.643 134.057 147.65C134.493 147.655 134.889 147.583 135.246 147.435C135.602 147.288 135.905 147.073 136.154 146.791C136.404 146.51 136.582 146.171 136.691 145.774L138.367 145.792C138.265 146.435 138.025 147.012 137.645 147.524C137.271 148.032 136.777 148.434 136.163 148.731C135.554 149.023 134.847 149.164 134.042 149.156ZM143.991 149.288C143.3 149.281 142.674 149.144 142.113 148.878C141.553 148.607 141.109 148.221 140.783 147.72C140.457 147.215 140.297 146.607 140.305 145.897C140.311 145.272 140.439 144.767 140.69 144.381C140.94 143.991 141.272 143.686 141.686 143.468C142.101 143.25 142.557 143.089 143.055 142.985C143.558 142.877 144.063 142.792 144.571 142.731C145.234 142.653 145.772 142.594 146.185 142.556C146.602 142.513 146.906 142.438 147.096 142.331C147.291 142.224 147.391 142.036 147.393 141.766L147.394 141.709C147.401 141.008 147.215 140.462 146.836 140.07C146.461 139.677 145.888 139.477 145.116 139.469C144.316 139.461 143.687 139.63 143.228 139.975C142.77 140.321 142.447 140.692 142.258 141.087L140.673 140.503C140.964 139.843 141.348 139.331 141.826 138.966C142.308 138.597 142.831 138.342 143.396 138.201C143.966 138.056 144.525 137.986 145.074 137.992C145.425 137.995 145.827 138.042 146.28 138.132C146.739 138.217 147.18 138.39 147.603 138.65C148.031 138.91 148.385 139.3 148.664 139.819C148.942 140.338 149.077 141.03 149.068 141.897L148.994 149.084L147.317 149.067L147.333 147.589L147.248 147.589C147.132 147.824 146.939 148.075 146.672 148.343C146.404 148.61 146.049 148.836 145.606 149.02C145.164 149.205 144.626 149.294 143.991 149.288ZM144.262 147.785C144.925 147.792 145.485 147.667 145.943 147.412C146.405 147.156 146.754 146.823 146.99 146.414C147.231 146.004 147.354 145.572 147.358 145.118L147.374 143.584C147.303 143.668 147.145 143.745 146.903 143.813C146.666 143.877 146.391 143.934 146.078 143.982C145.769 144.027 145.468 144.066 145.174 144.101C144.885 144.131 144.651 144.157 144.47 144.179C144.034 144.231 143.626 144.319 143.246 144.443C142.871 144.562 142.566 144.746 142.331 144.995C142.101 145.239 141.984 145.574 141.98 146C141.974 146.582 142.185 147.025 142.612 147.327C143.045 147.625 143.595 147.778 144.262 147.785ZM153.88 134.589L153.729 149.133L152.053 149.116L152.204 134.571L153.88 134.589ZM31.2168 171.862L31.3679 157.317L33.044 157.335L32.9882 162.704L33.1302 162.705C33.2553 162.517 33.4282 162.277 33.6491 161.986C33.8747 161.69 34.1947 161.428 34.609 161.2C35.0281 160.968 35.5928 160.856 36.3029 160.863C37.2215 160.872 38.0287 161.111 38.7246 161.577C39.4206 162.044 39.9607 162.7 40.3449 163.547C40.7291 164.394 40.9153 165.39 40.9034 166.536C40.8914 167.691 40.6845 168.691 40.2827 169.534C39.881 170.373 39.3297 171.02 38.6289 171.477C37.9281 171.929 37.1232 172.15 36.2142 172.141C35.5135 172.134 34.9536 172.012 34.5347 171.776C34.1157 171.534 33.7942 171.264 33.57 170.963C33.3459 170.658 33.1734 170.405 33.0523 170.205L32.8535 170.203L32.8361 171.879L31.2168 171.862ZM32.9211 166.425C32.9126 167.249 33.0257 167.977 33.2607 168.609C33.4956 169.236 33.8433 169.73 34.3036 170.09C34.7639 170.445 35.3303 170.626 36.0026 170.633C36.7033 170.64 37.2899 170.462 37.7625 170.097C38.2398 169.728 38.6001 169.23 38.8434 168.603C39.0915 167.971 39.2195 167.267 39.2276 166.49C39.2356 165.723 39.1244 165.031 38.894 164.413C38.6685 163.79 38.3209 163.296 37.8511 162.932C37.3862 162.562 36.7986 162.374 36.0884 162.366C35.4067 162.359 34.832 162.526 34.3644 162.867C33.8969 163.203 33.5415 163.678 33.2984 164.291C33.0554 164.899 32.9296 165.61 32.9211 166.425ZM50.3317 167.6L50.3987 161.151L52.0748 161.169L51.9614 172.077L50.2854 172.06L50.3046 170.213L50.191 170.212C49.9295 170.764 49.5269 171.23 48.9832 171.613C48.4394 171.991 47.7557 172.176 46.9318 172.167C46.2501 172.16 45.6456 172.005 45.1184 171.701C44.5913 171.392 44.1793 170.933 43.8826 170.324C43.586 169.71 43.4424 168.939 43.4521 168.011L43.5241 161.08L45.2001 161.097L45.1293 167.915C45.121 168.711 45.337 169.347 45.7771 169.825C46.222 170.304 46.7924 170.546 47.4884 170.554C47.905 170.558 48.3299 170.456 48.763 170.247C49.2008 170.039 49.5687 169.716 49.8668 169.278C50.1697 168.841 50.3246 168.282 50.3317 167.6ZM62.846 163.724L61.336 164.135C61.2439 163.883 61.1068 163.637 60.9246 163.399C60.7472 163.155 60.5031 162.954 60.1922 162.794C59.8813 162.635 59.4821 162.553 58.9944 162.548C58.3268 162.541 57.7689 162.689 57.3207 162.992C56.8772 163.29 56.653 163.674 56.6482 164.143C56.6438 164.559 56.7919 164.89 57.0924 165.135C57.3929 165.379 57.8643 165.585 58.5065 165.753L60.1216 166.167C61.0945 166.414 61.8175 166.784 62.2906 167.277C62.7638 167.765 62.9964 168.39 62.9885 169.152C62.982 169.777 62.7963 170.334 62.4314 170.822C62.0712 171.311 61.57 171.694 60.9279 171.972C60.2858 172.249 59.5409 172.383 58.6935 172.375C57.5808 172.363 56.6625 172.112 55.9383 171.621C55.2142 171.131 54.7599 170.421 54.5755 169.491L56.1704 169.11C56.3158 169.698 56.5977 170.141 57.016 170.439C57.4391 170.737 57.9939 170.89 58.6804 170.897C59.4616 170.905 60.0836 170.746 60.5462 170.419C61.0137 170.088 61.2499 169.688 61.2548 169.219C61.2587 168.84 61.1294 168.522 60.867 168.263C60.6045 168 60.1994 167.802 59.6515 167.668L57.8378 167.223C56.8413 166.976 56.1112 166.602 55.6477 166.1C55.1889 165.593 54.9634 164.963 54.9712 164.21C54.9776 163.595 55.1561 163.052 55.5066 162.582C55.8619 162.113 56.3416 161.746 56.9457 161.482C57.5545 161.219 58.2425 161.091 59.0095 161.099C60.0889 161.11 60.934 161.356 61.5446 161.835C62.1599 162.315 62.5937 162.945 62.846 163.724ZM65.4799 172.218L65.5932 161.309L67.2693 161.327L67.1559 172.235L65.4799 172.218ZM66.4643 159.5C66.1376 159.497 65.8571 159.382 65.6227 159.157C65.393 158.933 65.2798 158.664 65.283 158.351C65.2863 158.039 65.405 157.773 65.6393 157.552C65.8784 157.332 66.1612 157.224 66.4879 157.227C66.8146 157.231 67.0928 157.345 67.3225 157.57C67.5569 157.795 67.6725 158.064 67.6692 158.376C67.666 158.689 67.5449 158.955 67.3058 159.175C67.0715 159.395 66.791 159.503 66.4643 159.5ZM71.9699 165.722L71.9018 172.284L70.2257 172.267L70.339 161.359L71.9583 161.375L71.9406 163.08L72.0826 163.081C72.344 162.53 72.7369 162.089 73.2612 161.758C73.7855 161.423 74.4596 161.259 75.2834 161.268C76.022 161.276 76.6667 161.434 77.2175 161.743C77.7684 162.047 78.1945 162.506 78.4959 163.12C78.7974 163.729 78.9433 164.497 78.9336 165.425L78.8616 172.357L77.1856 172.339L77.2564 165.522C77.2653 164.665 77.0497 163.995 76.6096 163.512C76.1696 163.024 75.5613 162.777 74.7849 162.768C74.2499 162.763 73.7705 162.874 73.3467 163.102C72.9276 163.329 72.595 163.664 72.349 164.107C72.1029 164.549 71.9765 165.088 71.9699 165.722ZM86.4956 172.663C85.4445 172.652 84.5402 172.411 83.7828 171.939C83.0301 171.463 82.4522 170.803 82.049 169.961C81.6506 169.114 81.4571 168.132 81.4688 167.014C81.4804 165.897 81.6942 164.914 82.1102 164.066C82.531 163.214 83.1108 162.552 83.8497 162.081C84.5933 161.606 85.4575 161.374 86.4423 161.384C87.0104 161.39 87.5705 161.49 88.1225 161.685C88.6745 161.88 89.1755 162.193 89.6256 162.624C90.0757 163.05 90.4321 163.613 90.6948 164.312C90.9574 165.01 91.0834 165.869 91.0729 166.887L91.0655 167.597L82.6569 167.51L82.6719 166.061L89.3761 166.13C89.3825 165.515 89.2651 164.964 89.0239 164.479C88.7875 163.994 88.4458 163.609 87.9989 163.325C87.5568 163.041 87.0327 162.896 86.4266 162.889C85.7591 162.882 85.1797 163.042 84.6886 163.369C84.2023 163.69 83.8262 164.112 83.5603 164.635C83.2945 165.158 83.1584 165.72 83.1522 166.321L83.1421 167.287C83.1336 168.111 83.2684 168.811 83.5465 169.387C83.8294 169.958 84.225 170.395 84.7332 170.699C85.2415 170.998 85.8342 171.151 86.5112 171.158C86.9515 171.162 87.3499 171.105 87.7063 170.986C88.0674 170.861 88.3795 170.675 88.6425 170.427C88.9056 170.174 89.1101 169.859 89.256 169.482L90.8706 169.953C90.6944 170.5 90.4029 170.98 89.9962 171.393C89.5895 171.801 89.089 172.117 88.4947 172.343C87.9006 172.564 87.2342 172.671 86.4956 172.663ZM101.379 164.124L99.8691 164.535C99.777 164.283 99.6399 164.038 99.4577 163.799C99.2803 163.556 99.0361 163.354 98.7253 163.195C98.4144 163.035 98.0151 162.953 97.5275 162.948C96.8599 162.941 96.302 163.089 95.8537 163.392C95.4103 163.691 95.1861 164.074 95.1812 164.543C95.1769 164.96 95.325 165.29 95.6255 165.535C95.926 165.779 96.3974 165.986 97.0396 166.153L98.6547 166.568C99.6276 166.815 100.351 167.184 100.824 167.677C101.297 168.165 101.53 168.79 101.522 169.552C101.515 170.177 101.329 170.734 100.964 171.223C100.604 171.711 100.103 172.094 99.4609 172.372C98.8188 172.649 98.074 172.784 97.2265 172.775C96.1139 172.763 95.1955 172.512 94.4714 172.022C93.7473 171.531 93.293 170.821 93.1085 169.891L94.7035 169.51C94.8489 170.098 95.1308 170.542 95.5491 170.84C95.9722 171.138 96.527 171.29 97.2135 171.297C97.9947 171.305 98.6166 171.146 99.0793 170.82C99.5468 170.488 99.783 170.088 99.7879 169.619C99.7918 169.241 99.6625 168.922 99.4 168.664C99.1376 168.401 98.7324 168.202 98.1846 168.069L96.3709 167.624C95.3744 167.377 94.6443 167.002 94.1807 166.5C93.722 165.993 93.4965 165.364 93.5043 164.611C93.5107 163.995 93.6892 163.453 94.0397 162.983C94.395 162.513 94.8747 162.146 95.4788 161.883C96.0876 161.619 96.7755 161.491 97.5425 161.499C98.622 161.51 99.4671 161.756 100.078 162.236C100.693 162.716 101.127 163.345 101.379 164.124ZM111.828 164.233L110.318 164.643C110.226 164.391 110.089 164.146 109.906 163.907C109.729 163.664 109.485 163.463 109.174 163.303C108.863 163.144 108.464 163.061 107.976 163.056C107.309 163.049 106.751 163.198 106.302 163.501C105.859 163.799 105.635 164.183 105.63 164.651C105.626 165.068 105.774 165.399 106.074 165.643C106.375 165.888 106.846 166.094 107.488 166.262L109.103 166.676C110.076 166.923 110.799 167.293 111.272 167.786C111.746 168.273 111.978 168.899 111.97 169.661C111.964 170.286 111.778 170.843 111.413 171.331C111.053 171.82 110.552 172.203 109.91 172.48C109.267 172.758 108.523 172.892 107.675 172.883C106.563 172.872 105.644 172.621 104.92 172.13C104.196 171.64 103.742 170.93 103.557 170L105.152 169.618C105.298 170.207 105.579 170.65 105.998 170.948C106.421 171.246 106.976 171.399 107.662 171.406C108.443 171.414 109.065 171.255 109.528 170.928C109.995 170.597 110.232 170.197 110.237 169.728C110.24 169.349 110.111 169.031 109.849 168.772C109.586 168.509 109.181 168.311 108.633 168.177L106.82 167.732C105.823 167.485 105.093 167.111 104.629 166.609C104.171 166.102 103.945 165.472 103.953 164.719C103.959 164.104 104.138 163.561 104.488 163.091C104.844 162.621 105.323 162.255 105.927 161.991C106.536 161.727 107.224 161.6 107.991 161.608C109.071 161.619 109.916 161.864 110.526 162.344C111.142 162.824 111.575 163.454 111.828 164.233ZM119.033 173.001C117.982 172.99 117.078 172.749 116.32 172.277C115.567 171.801 114.989 171.141 114.586 170.299C114.188 169.452 113.994 168.47 114.006 167.352C114.018 166.235 114.231 165.252 114.648 164.404C115.068 163.552 115.648 162.89 116.387 162.419C117.131 161.944 117.995 161.712 118.98 161.722C119.548 161.728 120.108 161.828 120.66 162.023C121.212 162.218 121.713 162.531 122.163 162.962C122.613 163.388 122.969 163.951 123.232 164.65C123.495 165.348 123.621 166.207 123.61 167.225L123.603 167.935L115.194 167.848L115.209 166.399L121.913 166.468C121.92 165.853 121.802 165.302 121.561 164.817C121.325 164.332 120.983 163.947 120.536 163.663C120.094 163.379 119.57 163.234 118.964 163.227C118.296 163.22 117.717 163.38 117.226 163.707C116.74 164.028 116.364 164.45 116.098 164.973C115.832 165.496 115.696 166.058 115.689 166.659L115.679 167.625C115.671 168.449 115.806 169.149 116.084 169.725C116.367 170.296 116.762 170.733 117.271 171.037C117.779 171.336 118.371 171.489 119.049 171.496C119.489 171.5 119.887 171.443 120.244 171.324C120.605 171.199 120.917 171.013 121.18 170.765C121.443 170.512 121.647 170.197 121.793 169.82L123.408 170.291C123.232 170.838 122.94 171.318 122.533 171.731C122.127 172.139 121.626 172.455 121.032 172.681C120.438 172.902 119.771 173.009 119.033 173.001ZM133.916 164.462L132.406 164.873C132.314 164.621 132.177 164.376 131.995 164.137C131.818 163.894 131.573 163.692 131.263 163.533C130.952 163.373 130.552 163.291 130.065 163.286C129.397 163.279 128.839 163.427 128.391 163.73C127.948 164.029 127.723 164.412 127.719 164.881C127.714 165.298 127.862 165.628 128.163 165.873C128.463 166.117 128.935 166.324 129.577 166.491L131.192 166.906C132.165 167.153 132.888 167.522 133.361 168.015C133.834 168.503 134.067 169.128 134.059 169.89C134.052 170.515 133.867 171.072 133.502 171.561C133.142 172.049 132.64 172.432 131.998 172.71C131.356 172.987 130.611 173.122 129.764 173.113C128.651 173.101 127.733 172.85 127.009 172.36C126.285 171.869 125.83 171.159 125.646 170.229L127.241 169.848C127.386 170.436 127.668 170.88 128.086 171.178C128.509 171.476 129.064 171.628 129.751 171.635C130.532 171.643 131.154 171.484 131.617 171.158C132.084 170.826 132.32 170.426 132.325 169.957C132.329 169.579 132.2 169.26 131.937 169.002C131.675 168.739 131.27 168.54 130.722 168.407L128.908 167.962C127.912 167.715 127.182 167.34 126.718 166.838C126.259 166.331 126.034 165.702 126.042 164.949C126.048 164.333 126.226 163.791 126.577 163.321C126.932 162.851 127.412 162.484 128.016 162.221C128.625 161.957 129.313 161.829 130.08 161.837C131.159 161.848 132.004 162.094 132.615 162.574C133.23 163.054 133.664 163.683 133.916 164.462Z" fill="white"/>
<defs>
<linearGradient id="paint0_linear_32_647" x1="18.1944" y1="-91.4739" x2="230.81" y2="288.859" gradientUnits="userSpaceOnUse">
<stop stop-color="#86246D"/>
<stop offset="1" stop-color="#BC282A"/>
</linearGradient>
</defs>
</svg>
