<svg width="230" height="261" viewBox="0 0 230 261" fill="none" xmlns="http://www.w3.org/2000/svg">
<rect x="2.67999" y="-3.05176e-05" width="227" height="258" rx="15" transform="rotate(0.595173 2.67999 -3.05176e-05)" fill="url(#paint0_linear_235_539)"/>
<path d="M38.9167 106.574L39.0176 103.655C39.4074 92.3695 48.8717 83.5373 60.1567 83.9271" stroke="white" stroke-width="3" stroke-linecap="round" stroke-linejoin="round"/>
<path d="M79.9857 85.5282C81.9302 83.5359 85.1669 83.6477 86.9693 85.7695C87.8803 86.842 89.2217 87.4526 90.6286 87.4355C93.4123 87.4016 95.6221 89.7695 95.3962 92.5442C95.282 93.9466 95.7986 95.3269 96.8057 96.3098C98.798 98.2543 98.6862 101.491 96.5645 103.293C95.492 104.204 94.8813 105.546 94.8985 106.953C94.9324 109.736 92.5645 111.946 89.7897 111.72C88.3874 111.606 87.007 112.123 86.0242 113.13C84.0797 115.122 80.843 115.01 79.0406 112.888C78.1296 111.816 76.7882 111.205 75.3813 111.222C72.5976 111.256 70.3878 108.888 70.6137 106.114C70.7279 104.711 70.2113 103.331 69.2042 102.348C67.2119 100.404 67.3237 97.1671 69.4455 95.3647C70.5179 94.4536 71.1286 93.1123 71.1114 91.7053C71.0775 88.9216 73.4454 86.7119 76.2202 86.9378C77.6226 87.052 79.0029 86.5353 79.9857 85.5282Z" stroke="white" stroke-width="3"/>
<path d="M60.1567 83.9271C66.6052 84.1498 72.0135 79.1027 72.2362 72.6542C72.459 66.2056 67.4118 60.7974 60.9634 60.5747C54.5148 60.3519 49.1066 65.399 48.8838 71.8475C48.6611 78.296 53.7081 83.7043 60.1567 83.9271Z" stroke="white" stroke-width="3" stroke-linecap="round" stroke-linejoin="round"/>
<path d="M35.0625 149.017L35.2136 134.473L43.9347 134.563L43.9185 136.126L36.9586 136.053L36.9076 140.968L43.2141 141.033L43.1978 142.596L36.8913 142.53L36.8238 149.036L35.0625 149.017ZM46.5729 149.137L46.6862 138.228L48.3623 138.246L48.2489 149.154L46.5729 149.137ZM47.5573 136.419C47.2306 136.416 46.9501 136.301 46.7157 136.077C46.486 135.852 46.3728 135.583 46.376 135.27C46.3793 134.958 46.498 134.692 46.7323 134.471C46.9714 134.251 47.2542 134.143 47.5809 134.146C47.9076 134.15 48.1858 134.264 48.4155 134.489C48.6499 134.714 48.7655 134.983 48.7622 135.295C48.759 135.608 48.6379 135.874 48.3988 136.094C48.1645 136.314 47.884 136.422 47.5573 136.419ZM53.0629 142.641L52.9948 149.204L51.3187 149.186L51.432 138.278L53.0513 138.294L53.0336 139.999L53.1756 140C53.437 139.449 53.8299 139.008 54.3542 138.677C54.8785 138.342 55.5526 138.178 56.3764 138.187C57.115 138.195 57.7597 138.353 58.3105 138.662C58.8614 138.966 59.2875 139.425 59.5889 140.039C59.8904 140.648 60.0363 141.416 60.0266 142.344L59.9546 149.276L58.2786 149.258L58.3494 142.441C58.3583 141.584 58.1427 140.914 57.7026 140.431C57.2626 139.943 56.6543 139.696 55.8779 139.688C55.3429 139.682 54.8635 139.793 54.4397 140.021C54.0206 140.248 53.688 140.583 53.442 141.026C53.1959 141.468 53.0695 142.007 53.0629 142.641ZM67.134 149.578C66.225 149.568 65.4249 149.33 64.7337 148.864C64.0425 148.393 63.5048 147.734 63.1206 146.887C62.7364 146.035 62.5503 145.032 62.5623 143.876C62.5742 142.731 62.7811 141.738 63.1828 140.9C63.5845 140.061 64.1381 139.416 64.8436 138.964C65.5491 138.512 66.3611 138.291 67.2796 138.3C67.9898 138.308 68.5496 138.432 68.9591 138.673C69.3733 138.909 69.6878 139.178 69.9025 139.478C70.1219 139.774 70.2922 140.017 70.4134 140.208L70.5554 140.209L70.6112 134.84L72.2872 134.858L72.1361 149.402L70.5169 149.386L70.5343 147.709L70.3355 147.707C70.2103 147.905 70.0325 148.154 69.8021 148.455C69.5717 148.751 69.2447 149.015 68.8208 149.247C68.397 149.475 67.8348 149.585 67.134 149.578ZM67.377 148.074C68.0493 148.081 68.6192 147.912 69.0869 147.567C69.5545 147.216 69.9124 146.73 70.1603 146.108C70.4083 145.48 70.5366 144.755 70.5452 143.931C70.5536 143.117 70.4427 142.403 70.2123 141.79C69.9819 141.172 69.6365 140.69 69.1761 140.344C68.7157 139.994 68.1446 139.815 67.4628 139.808C66.7526 139.8 66.1589 139.977 65.6817 140.336C65.2092 140.691 64.8514 141.178 64.6082 141.795C64.3698 142.408 64.2467 143.098 64.2387 143.865C64.2306 144.642 64.3417 145.349 64.5718 145.986C64.8067 146.618 65.1566 147.123 65.6214 147.502C66.0911 147.876 66.6762 148.067 67.377 148.074ZM81.2905 149.497L81.4416 134.953L90.2195 135.044L90.2033 136.606L83.1866 136.534L83.1356 141.448L89.6977 141.516L89.6815 143.079L83.1193 143.01L83.068 147.953L90.1983 148.027L90.182 149.59L81.2905 149.497ZM102.049 138.803L97.9018 149.67L96.1973 149.652L92.2768 138.702L94.0949 138.721L97.0158 147.445L97.1294 147.446L100.231 138.785L102.049 138.803ZM108.329 150.006C107.277 149.995 106.373 149.753 105.616 149.281C104.863 148.805 104.285 148.145 103.882 147.303C103.484 146.456 103.29 145.474 103.302 144.357C103.313 143.239 103.527 142.256 103.943 141.408C104.364 140.556 104.944 139.894 105.683 139.424C106.426 138.948 107.29 138.716 108.275 138.726C108.843 138.732 109.403 138.832 109.955 139.028C110.507 139.223 111.008 139.536 111.459 139.967C111.909 140.393 112.265 140.955 112.528 141.654C112.79 142.353 112.916 143.211 112.906 144.229L112.898 144.939L104.49 144.852L104.505 143.403L111.209 143.473C111.215 142.857 111.098 142.307 110.857 141.821C110.62 141.336 110.279 140.951 109.832 140.667C109.39 140.383 108.866 140.238 108.26 140.232C107.592 140.225 107.013 140.384 106.522 140.711C106.035 141.032 105.659 141.455 105.393 141.978C105.127 142.5 104.991 143.062 104.985 143.664L104.975 144.63C104.967 145.453 105.101 146.153 105.379 146.729C105.662 147.3 106.058 147.738 106.566 148.041C107.074 148.34 107.667 148.493 108.344 148.5C108.785 148.505 109.183 148.447 109.539 148.328C109.9 148.204 110.212 148.018 110.475 147.769C110.739 147.516 110.943 147.201 111.089 146.824L112.704 147.295C112.527 147.843 112.236 148.323 111.829 148.735C111.422 149.143 110.922 149.46 110.328 149.685C109.734 149.907 109.067 150.013 108.329 150.006ZM117.142 143.307L117.073 149.869L115.397 149.852L115.511 138.943L117.13 138.96L117.112 140.665L117.254 140.666C117.516 140.115 117.908 139.674 118.433 139.343C118.957 139.007 119.631 138.844 120.455 138.853C121.194 138.86 121.838 139.018 122.389 139.327C122.94 139.631 123.366 140.09 123.667 140.704C123.969 141.313 124.115 142.082 124.105 143.01L124.033 149.941L122.357 149.924L122.428 143.106C122.437 142.249 122.221 141.579 121.781 141.097C121.341 140.609 120.733 140.361 119.956 140.353C119.421 140.348 118.942 140.459 118.518 140.686C118.099 140.914 117.767 141.249 117.521 141.692C117.274 142.134 117.148 142.673 117.142 143.307ZM131.953 139.114L131.939 140.534L126.285 140.476L126.3 139.055L131.953 139.114ZM127.975 136.459L129.651 136.476L129.543 146.874C129.538 147.347 129.603 147.703 129.738 147.941C129.878 148.174 130.056 148.333 130.273 148.415C130.494 148.493 130.728 148.534 130.975 148.536C131.159 148.538 131.311 148.53 131.429 148.513C131.548 148.49 131.643 148.472 131.714 148.459L132.039 149.968C131.925 150.009 131.766 150.05 131.562 150.091C131.358 150.136 131.1 150.157 130.787 150.154C130.314 150.149 129.851 150.042 129.399 149.834C128.951 149.626 128.58 149.312 128.286 148.892C127.997 148.472 127.856 147.945 127.862 147.311L127.975 136.459ZM34.8132 173.016L34.9643 158.471L36.7256 158.49L36.6583 164.966L44.4135 165.047L44.4808 158.57L46.2421 158.588L46.091 173.133L44.3297 173.115L44.3973 166.609L36.642 166.529L36.5745 173.034L34.8132 173.016ZM53.819 173.441C52.8343 173.43 51.9726 173.187 51.2342 172.711C50.5004 172.234 49.9296 171.573 49.5217 170.725C49.1186 169.878 48.9229 168.891 48.9346 167.765C48.9464 166.628 49.1626 165.639 49.5833 164.795C50.0088 163.952 50.5932 163.3 51.3367 162.839C52.0849 162.378 52.9514 162.153 53.9362 162.163C54.921 162.173 55.7803 162.416 56.514 162.893C57.2524 163.369 57.8232 164.033 58.2263 164.885C58.6342 165.737 58.8322 166.731 58.8204 167.867C58.8087 168.994 58.5901 169.977 58.1647 170.815C57.7441 171.654 57.1596 172.303 56.4114 172.764C55.668 173.225 54.8038 173.451 53.819 173.441ZM53.8347 171.935C54.5828 171.943 55.2002 171.757 55.6872 171.379C56.1741 171.001 56.5368 170.5 56.7753 169.877C57.0137 169.255 57.1368 168.579 57.1443 167.85C57.1519 167.121 57.043 166.44 56.8175 165.808C56.5921 165.176 56.2399 164.663 55.761 164.27C55.2821 163.877 54.6686 163.676 53.9206 163.668C53.1725 163.661 52.555 163.848 52.068 164.232C51.5811 164.615 51.2183 165.12 50.9798 165.747C50.7412 166.375 50.6182 167.053 50.6106 167.782C50.603 168.511 50.712 169.189 50.9375 169.817C51.163 170.444 51.5152 170.952 51.9942 171.341C52.4731 171.729 53.0866 171.927 53.8347 171.935ZM63.1499 158.764L62.9988 173.309L61.3228 173.291L61.4739 158.747L63.1499 158.764ZM70.1854 173.611C69.2763 173.601 68.4762 173.363 67.785 172.897C67.0938 172.426 66.5561 171.767 66.1719 170.92C65.7877 170.068 65.6016 169.065 65.6136 167.909C65.6255 166.764 65.8324 165.771 66.2341 164.933C66.6358 164.094 67.1894 163.449 67.8949 162.997C68.6004 162.545 69.4124 162.324 70.3309 162.333C71.0411 162.341 71.6009 162.465 72.0104 162.706C72.4246 162.942 72.7391 163.211 72.9538 163.511C73.1732 163.807 73.3435 164.05 73.4647 164.241L73.6067 164.242L73.6625 158.873L75.3385 158.891L75.1874 173.435L73.5682 173.419L73.5856 171.742L73.3868 171.74C73.2616 171.938 73.0838 172.187 72.8534 172.488C72.6231 172.784 72.296 173.048 71.8721 173.28C71.4483 173.508 70.8861 173.618 70.1854 173.611ZM70.4283 172.107C71.1006 172.114 71.6705 171.945 72.1382 171.6C72.6058 171.249 72.9637 170.763 73.2116 170.141C73.4596 169.513 73.5879 168.788 73.5965 167.964C73.6049 167.15 73.494 166.436 73.2636 165.823C73.0332 165.205 72.6878 164.723 72.2274 164.377C71.767 164.027 71.1959 163.848 70.5141 163.841C69.8039 163.833 69.2102 164.01 68.733 164.369C68.2605 164.724 67.9027 165.211 67.6595 165.828C67.4211 166.441 67.298 167.131 67.29 167.898C67.2819 168.675 67.393 169.382 67.6231 170.019C67.858 170.651 68.2079 171.156 68.6727 171.535C69.1424 171.909 69.7275 172.1 70.4283 172.107ZM83.0611 173.744C82.01 173.734 81.1057 173.492 80.3483 173.02C79.5956 172.544 79.0177 171.884 78.6145 171.042C78.2161 170.195 78.0227 169.213 78.0343 168.095C78.0459 166.978 78.2597 165.995 78.6757 165.147C79.0965 164.295 79.6763 163.633 80.4152 163.162C81.1588 162.687 82.023 162.455 83.0078 162.465C83.5759 162.471 84.136 162.571 84.688 162.766C85.24 162.962 85.741 163.275 86.1911 163.705C86.6412 164.131 86.9976 164.694 87.2603 165.393C87.5229 166.092 87.6489 166.95 87.6384 167.968L87.631 168.678L79.2224 168.591L79.2374 167.142L85.9416 167.212C85.948 166.596 85.8306 166.046 85.5894 165.56C85.353 165.075 85.0113 164.69 84.5644 164.406C84.1223 164.122 83.5982 163.977 82.9921 163.97C82.3246 163.964 81.7452 164.123 81.2541 164.45C80.7678 164.771 80.3917 165.194 80.1258 165.716C79.86 166.239 79.7239 166.801 79.7177 167.403L79.7076 168.368C79.6991 169.192 79.8339 169.892 80.112 170.468C80.3949 171.039 80.7905 171.476 81.2987 171.78C81.807 172.079 82.3997 172.232 83.0767 172.239C83.517 172.243 83.9154 172.186 84.2718 172.067C84.6329 171.942 84.945 171.756 85.208 171.508C85.4711 171.255 85.6756 170.94 85.8215 170.563L87.4361 171.034C87.2599 171.581 86.9684 172.061 86.5617 172.474C86.155 172.882 85.6545 173.198 85.0602 173.424C84.4661 173.645 83.7997 173.752 83.0611 173.744ZM90.1298 173.591L90.2431 162.682L91.8624 162.699L91.8453 164.347L91.9589 164.348C92.1633 163.81 92.5277 163.376 93.052 163.045C93.5763 162.714 94.1652 162.552 94.8185 162.559C94.9416 162.56 95.0955 162.564 95.2801 162.571C95.4647 162.578 95.6043 162.586 95.6989 162.597L95.6812 164.301C95.6245 164.286 95.4945 164.264 95.2912 164.233C95.0927 164.198 94.8822 164.179 94.6597 164.177C94.1294 164.171 93.6548 164.278 93.2358 164.496C92.8216 164.709 92.4918 165.009 92.2463 165.395C92.0056 165.776 91.8827 166.213 91.8776 166.705L91.8059 173.608L90.1298 173.591ZM105.386 165.283L103.876 165.693C103.784 165.441 103.646 165.196 103.464 164.957C103.287 164.714 103.043 164.513 102.732 164.353C102.421 164.194 102.022 164.111 101.534 164.106C100.866 164.099 100.309 164.247 99.8603 164.551C99.4168 164.849 99.1926 165.233 99.1878 165.701C99.1834 166.118 99.3315 166.449 99.632 166.693C99.9325 166.938 100.404 167.144 101.046 167.312L102.661 167.726C103.634 167.973 104.357 168.343 104.83 168.835C105.303 169.323 105.536 169.948 105.528 170.711C105.522 171.336 105.336 171.892 104.971 172.381C104.611 172.87 104.11 173.253 103.467 173.53C102.825 173.808 102.081 173.942 101.233 173.933C100.12 173.922 99.202 173.671 98.4779 173.18C97.7538 172.69 97.2995 171.979 97.115 171.049L98.71 170.668C98.8554 171.257 99.1373 171.7 99.5556 171.998C99.9787 172.296 100.533 172.449 101.22 172.456C102.001 172.464 102.623 172.305 103.086 171.978C103.553 171.647 103.789 171.247 103.794 170.778C103.798 170.399 103.669 170.08 103.407 169.822C103.144 169.559 102.739 169.361 102.191 169.227L100.377 168.782C99.3809 168.535 98.6508 168.16 98.1873 167.658C97.7285 167.152 97.503 166.522 97.5108 165.769C97.5172 165.154 97.6957 164.611 98.0462 164.141C98.4015 163.671 98.8812 163.305 99.4853 163.041C100.094 162.777 100.782 162.65 101.549 162.657C102.629 162.669 103.474 162.914 104.084 163.394C104.699 163.874 105.133 164.504 105.386 165.283Z" fill="white"/>
<defs>
<linearGradient id="paint0_linear_235_539" x1="18.1117" y1="-92.0409" x2="230.728" y2="288.292" gradientUnits="userSpaceOnUse">
<stop stop-color="#62298E"/>
<stop offset="1" stop-color="#6A22B4"/>
</linearGradient>
</defs>
</svg>
