<svg width="228" height="259" viewBox="0 0 228 259" fill="none" xmlns="http://www.w3.org/2000/svg">
<rect x="0.721252" y="0.586365" width="227" height="258" rx="15" transform="rotate(0.0934018 0.721252 0.586365)" fill="url(#paint0_linear_235_541)"/>
<path d="M62.252 112.491L63.1346 113.704L62.252 112.491ZM62.3777 112.4L61.5029 111.181L62.3777 112.4ZM69.1561 110.161L69.179 111.661L69.1561 110.161ZM52.0645 113.917L53.4621 114.462L52.0645 113.917ZM56.0602 116.997L55.1776 115.784L55.1776 115.784L56.0602 116.997ZM86.3308 101.432L87.7739 101.841L86.3308 101.432ZM78.3087 109.598L78.7434 111.033L78.3087 109.598ZM45.3432 73.4814L46.036 74.8118L45.3432 73.4814ZM40.1742 78.7428L41.5167 79.4119L40.1742 78.7428ZM80.0464 73.1741L79.3772 74.5166L80.0464 73.1741ZM85.3078 78.3432L83.9773 79.036L85.3078 78.3432ZM64.6901 82.9247L65.5048 84.1842L64.6901 82.9247ZM72.7019 83.2294L73.7636 82.1698L72.7019 83.2294ZM52.8645 83.4051L53.9448 84.4458L52.8645 83.4051ZM60.8697 82.9585L61.6619 81.6848L61.6619 81.6848L60.8697 82.9585ZM67.4435 70.4849L57.8965 70.5694L57.9231 73.5693L67.4701 73.4847L67.4435 70.4849ZM37.4849 91.3456L37.5742 101.438L40.5741 101.411L40.4848 91.3191L37.4849 91.3456ZM88.2448 93.7229L88.2198 90.8965L85.2199 90.923L85.2449 93.7495L88.2448 93.7229ZM48.1692 111.847L49.6054 111.834L49.5788 108.834L48.1426 108.847L48.1692 111.847ZM56.9428 118.21L63.1346 113.704L61.3693 111.278L55.1776 115.784L56.9428 118.21ZM69.3247 111.659L70.6346 111.648L70.608 108.648L69.2981 108.659L69.3247 111.659ZM63.1346 113.704C63.1993 113.657 63.2263 113.637 63.2526 113.618L61.5029 111.181C61.467 111.207 61.431 111.233 61.3693 111.278L63.1346 113.704ZM69.2981 108.659C69.2219 108.66 69.1773 108.66 69.1332 108.661L69.179 111.661C69.2113 111.66 69.2448 111.66 69.3247 111.659L69.2981 108.659ZM63.2526 113.618C64.9821 112.376 67.0501 111.693 69.179 111.661L69.1332 108.661C66.3922 108.703 63.7296 109.582 61.5029 111.181L63.2526 113.618ZM49.6054 111.834C50.4038 111.827 50.9568 112.628 50.6669 113.372L53.4621 114.462C54.5228 111.74 52.4995 108.808 49.5788 108.834L49.6054 111.834ZM50.6669 113.372C49.1695 117.214 53.6089 120.636 56.9428 118.21L55.1776 115.784C54.2663 116.447 53.0527 115.512 53.4621 114.462L50.6669 113.372ZM85.2449 93.7495C85.2815 97.8866 85.2817 99.6337 84.8877 101.023L87.7739 101.841C88.315 99.9334 88.2795 97.6489 88.2448 93.7229L85.2449 93.7495ZM70.6346 111.648C74.5606 111.613 76.8453 111.608 78.7434 111.033L77.8739 108.162C76.4919 108.58 74.7451 108.611 70.608 108.648L70.6346 111.648ZM84.8877 101.023C83.9181 104.442 81.275 107.132 77.8739 108.162L78.7434 111.033C83.1225 109.707 86.5254 106.243 87.7739 101.841L84.8877 101.023ZM37.5742 101.438C37.6256 107.238 42.3691 111.898 48.1692 111.847L48.1426 108.847C43.9993 108.883 40.6108 105.554 40.5741 101.411L37.5742 101.438ZM57.8965 70.5694C54.5795 70.5988 52.0015 70.6204 49.9378 70.8074C47.8566 70.996 46.1667 71.3614 44.6505 72.151L46.036 74.8118C47.0611 74.278 48.3127 73.967 50.2085 73.7952C52.1219 73.6218 54.5566 73.5991 57.9231 73.5693L57.8965 70.5694ZM40.4848 91.3191C40.455 87.9526 40.4346 85.5179 40.5741 83.6018C40.7123 81.7032 41.0011 80.4463 41.5167 79.4119L38.8317 78.0737C38.0691 79.6036 37.7337 81.2997 37.582 83.384C37.4315 85.4507 37.4555 88.0286 37.4849 91.3456L40.4848 91.3191ZM44.6505 72.151C42.1342 73.4613 40.0973 75.5346 38.8317 78.0737L41.5167 79.4119C42.4996 77.4398 44.0817 75.8295 46.036 74.8118L44.6505 72.151ZM67.4701 73.4847C70.8366 73.4549 73.2713 73.4346 75.1874 73.574C77.086 73.7123 78.3429 74.0011 79.3772 74.5166L80.7155 71.8317C79.1855 71.0691 77.4894 70.7337 75.4052 70.582C73.3385 70.4315 70.7605 70.4555 67.4435 70.4849L67.4701 73.4847ZM88.2198 90.8965C88.1904 87.5795 88.1687 85.0015 87.9817 82.9378C87.7931 80.8565 87.4277 79.1666 86.6382 77.6504L83.9773 79.036C84.5111 80.0611 84.8222 81.3127 84.994 83.2085C85.1674 85.1219 85.1901 87.5565 85.2199 90.923L88.2198 90.8965ZM79.3772 74.5166C81.3493 75.4996 82.9596 77.0816 83.9773 79.036L86.6382 77.6504C85.3279 75.1341 83.2546 73.0972 80.7155 71.8317L79.3772 74.5166ZM65.5048 84.1842C66.3957 83.6079 67.4533 83.121 68.5095 83.0343C69.4908 82.9537 70.5587 83.2055 71.6403 84.2891L73.7636 82.1698C72.0344 80.4373 70.0895 79.8944 68.264 80.0443C66.5136 80.1881 64.9707 80.9568 63.8754 81.6652L65.5048 84.1842ZM71.6403 84.2891C72.941 85.5923 73.393 87.1989 73.2304 89.0064C73.0635 90.8598 72.2438 92.8945 71.0136 94.8258C69.7896 96.7476 68.2186 98.4726 66.6735 99.7051C65.0636 100.989 63.7233 101.548 62.9447 101.555L62.9713 104.555C64.7884 104.539 66.7979 103.443 68.5442 102.05C70.3553 100.606 72.1469 98.6308 73.5439 96.4375C74.9349 94.2538 75.9948 91.7586 76.2183 89.2753C76.4459 86.7459 75.799 84.209 73.7636 82.1698L71.6403 84.2891ZM62.9447 101.555C62.1662 101.562 60.8161 101.027 59.1838 99.7714C57.6171 98.5665 56.0158 96.8695 54.7579 94.9697C53.4937 93.0605 52.6381 91.0407 52.4385 89.1904C52.2438 87.3862 52.6673 85.7718 53.9448 84.4458L51.7843 82.3644C49.7853 84.4393 49.1834 86.9873 49.4558 89.5122C49.7232 91.9912 50.8272 94.4673 52.2565 96.626C53.6922 98.7941 55.5185 100.737 57.3549 102.149C59.1256 103.511 61.1542 104.571 62.9713 104.555L62.9447 101.555ZM53.9448 84.4458C55.007 83.3432 56.0703 83.0725 57.0528 83.1357C58.1105 83.2037 59.1765 83.6718 60.0774 84.2322L61.6619 81.6848C60.5543 80.9959 58.998 80.2546 57.2453 80.1419C55.4175 80.0243 53.4825 80.6016 51.7843 82.3644L53.9448 84.4458ZM63.8754 81.6652C63.2409 82.0756 62.3036 82.0839 61.6619 81.6848L60.0774 84.2322C61.7055 85.2449 63.8949 85.2255 65.5048 84.1842L63.8754 81.6652Z" fill="white"/>
<path d="M44.4995 149.944C44.4155 149.225 44.0707 148.665 43.4653 148.267C42.8599 147.868 42.1169 147.668 41.2362 147.666C40.5922 147.665 40.0286 147.769 39.5453 147.976C39.0668 148.184 38.6923 148.469 38.4218 148.834C38.156 149.198 38.0228 149.612 38.022 150.076C38.0214 150.464 38.1132 150.798 38.2974 151.078C38.4863 151.353 38.7274 151.583 39.0207 151.768C39.314 151.948 39.6215 152.098 39.9433 152.217C40.265 152.331 40.5608 152.424 40.8306 152.495L42.3072 152.895C42.6858 152.995 43.107 153.133 43.5707 153.309C44.0392 153.485 44.4863 153.725 44.9119 154.029C45.3423 154.328 45.6968 154.712 45.9754 155.181C46.254 155.65 46.3927 156.226 46.3916 156.908C46.3903 157.694 46.1832 158.404 45.7702 159.037C45.362 159.671 44.7646 160.174 43.978 160.547C43.1961 160.92 42.2465 161.105 41.1291 161.104C40.0874 161.102 39.1857 160.932 38.4239 160.595C37.6669 160.258 37.0711 159.788 36.6364 159.186C36.2065 158.584 35.9638 157.885 35.9083 157.089L37.7265 157.092C37.7729 157.642 37.9569 158.097 38.2782 158.457C38.6044 158.813 39.0159 159.078 39.5127 159.254C40.0144 159.426 40.554 159.512 41.1316 159.513C41.804 159.514 42.4079 159.406 42.9433 159.189C43.4787 158.967 43.9029 158.66 44.2161 158.268C44.5292 157.871 44.6862 157.407 44.6871 156.877C44.6879 156.394 44.5536 156 44.2842 155.697C44.0148 155.393 43.6601 155.147 43.22 154.957C42.78 154.766 42.3044 154.6 41.7933 154.457L40.0044 153.943C38.8685 153.614 37.9697 153.146 37.3078 152.539C36.6459 151.932 36.3157 151.138 36.3173 150.158C36.3187 149.344 36.54 148.634 36.9813 148.029C37.4274 147.419 38.0248 146.946 38.7734 146.611C39.5268 146.271 40.3675 146.102 41.2955 146.104C42.233 146.105 43.0661 146.275 43.7947 146.612C44.5233 146.945 45.1003 147.4 45.5255 147.979C45.9554 148.557 46.1816 149.213 46.2041 149.947L44.4995 149.944ZM53.6273 161.096C52.5762 161.094 51.6698 160.86 50.9083 160.395C50.1515 159.925 49.5678 159.271 49.1572 158.432C48.7514 157.589 48.5494 156.608 48.5512 155.491C48.553 154.373 48.7582 153.389 49.1668 152.537C49.5801 151.681 50.1542 151.014 50.8888 150.537C51.6283 150.055 52.4904 149.815 53.4752 149.817C54.0434 149.818 54.6043 149.914 55.158 150.104C55.7117 150.294 56.2154 150.603 56.6693 151.03C57.1231 151.452 57.4844 152.011 57.7532 152.707C58.022 153.404 58.1555 154.261 58.1538 155.279L58.1527 155.989L49.7436 155.976L49.746 154.527L56.4505 154.538C56.4515 153.922 56.3293 153.373 56.0839 152.889C55.8432 152.406 55.4982 152.024 55.0488 151.744C54.6042 151.464 54.0788 151.324 53.4728 151.323C52.8052 151.322 52.2272 151.486 51.739 151.817C51.2555 152.143 50.8832 152.568 50.6219 153.094C50.3606 153.619 50.2295 154.182 50.2285 154.783L50.2269 155.749C50.2256 156.573 50.3665 157.272 50.6496 157.845C50.9375 158.414 51.3369 158.848 51.8478 159.147C52.3587 159.441 52.9527 159.589 53.6298 159.59C54.0701 159.591 54.4679 159.53 54.8232 159.407C55.1833 159.28 55.4937 159.091 55.7546 158.841C56.0154 158.585 56.2171 158.268 56.3598 157.89L57.9784 158.347C57.807 158.896 57.5198 159.378 57.1166 159.795C56.7135 160.206 56.2158 160.527 55.6236 160.758C55.0314 160.984 54.3659 161.097 53.6273 161.096ZM65.2679 161.115C64.2168 161.113 63.3104 160.879 62.5489 160.414C61.7921 159.944 61.2084 159.29 60.7978 158.451C60.392 157.608 60.19 156.627 60.1918 155.51C60.1936 154.392 60.3988 153.408 60.8074 152.556C61.2208 151.7 61.7948 151.033 62.5294 150.556C63.2689 150.074 64.131 149.834 65.1158 149.836C65.684 149.837 66.245 149.932 66.7986 150.123C67.3523 150.313 67.856 150.622 68.3099 151.049C68.7638 151.471 69.1251 152.03 69.3938 152.726C69.6626 153.423 69.7961 154.28 69.7944 155.298L69.7933 156.008L61.3842 155.995L61.3866 154.546L68.0911 154.557C68.0921 153.941 67.9699 153.392 67.7245 152.908C67.4838 152.425 67.1388 152.043 66.6894 151.763C66.2448 151.483 65.7195 151.343 65.1134 151.342C64.4458 151.341 63.8679 151.505 63.3796 151.836C62.8961 152.162 62.5238 152.587 62.2625 153.113C62.0012 153.638 61.8701 154.201 61.8691 154.802L61.8675 155.768C61.8662 156.592 62.0071 157.291 62.2903 157.864C62.5782 158.433 62.9775 158.867 63.4884 159.166C63.9993 159.46 64.5933 159.608 65.2704 159.609C65.7107 159.61 66.1085 159.549 66.4639 159.426C66.8239 159.299 67.1343 159.11 67.3952 158.86C67.656 158.604 67.8578 158.287 68.0004 157.909L69.619 158.366C69.4476 158.915 69.1604 159.397 68.7573 159.813C68.3541 160.225 67.8564 160.546 67.2642 160.777C66.672 161.003 66.0065 161.116 65.2679 161.115ZM82.7221 150.007L82.7198 151.427L77.0664 151.418L77.0687 149.997L82.7221 150.007ZM78.7207 147.387L80.3968 147.389L80.3799 157.787C80.3791 158.26 80.4472 158.616 80.5841 158.853C80.7258 159.085 80.9055 159.241 81.1231 159.322C81.3455 159.398 81.5799 159.437 81.8261 159.437C82.0107 159.437 82.1623 159.428 82.2807 159.409C82.3991 159.386 82.4938 159.367 82.5648 159.353L82.9033 160.859C82.7896 160.902 82.6309 160.944 82.4272 160.986C82.2236 161.033 81.9655 161.057 81.653 161.056C81.1795 161.055 80.7156 160.953 80.2614 160.748C79.812 160.544 79.4384 160.233 79.1408 159.816C78.8479 159.399 78.702 158.873 78.703 158.239L78.7207 147.387ZM87.1469 154.361L87.1362 160.923L85.46 160.92L85.4837 146.375L87.1599 146.378L87.1512 151.718L87.2932 151.719C87.5498 151.156 87.9341 150.709 88.446 150.378C88.9626 150.043 89.6494 149.876 90.5064 149.877C91.2498 149.879 91.9006 150.029 92.4588 150.328C93.0171 150.622 93.4496 151.075 93.7563 151.687C94.0678 152.293 94.2228 153.065 94.2213 154.003L94.21 160.935L92.5339 160.932L92.545 154.114C92.5464 153.247 92.3226 152.577 91.8735 152.103C91.4293 151.624 90.8117 151.384 90.021 151.382C89.4718 151.381 88.9792 151.497 88.5432 151.728C88.1119 151.959 87.7705 152.297 87.5188 152.742C87.2719 153.186 87.1479 153.726 87.1469 154.361ZM101.85 161.174C100.799 161.173 99.8924 160.939 99.1309 160.474C98.3741 160.004 97.7904 159.349 97.3798 158.511C96.974 157.667 96.772 156.687 96.7738 155.569C96.7756 154.452 96.9808 153.467 97.3894 152.616C97.8027 151.759 98.3767 151.093 99.1114 150.616C99.8508 150.134 100.713 149.894 101.698 149.896C102.266 149.897 102.827 149.992 103.381 150.182C103.934 150.373 104.438 150.681 104.892 151.108C105.346 151.53 105.707 152.09 105.976 152.786C106.245 153.483 106.378 154.34 106.376 155.358L106.375 156.068L97.9662 156.054L97.9686 154.605L104.673 154.616C104.674 154.001 104.552 153.451 104.306 152.968C104.066 152.485 103.721 152.103 103.271 151.823C102.827 151.543 102.301 151.402 101.695 151.401C101.028 151.4 100.45 151.565 99.9616 151.896C99.4781 152.222 99.1057 152.647 98.8445 153.172C98.5832 153.697 98.4521 154.261 98.4511 154.862L98.4495 155.828C98.4482 156.652 98.5891 157.35 98.8722 157.924C99.1601 158.492 99.5595 158.926 100.07 159.225C100.581 159.52 101.175 159.667 101.852 159.669C102.293 159.669 102.691 159.608 103.046 159.486C103.406 159.359 103.716 159.17 103.977 158.919C104.238 158.664 104.44 158.347 104.582 157.968L106.201 158.426C106.03 158.975 105.742 159.457 105.339 159.873C104.936 160.284 104.438 160.606 103.846 160.837C103.254 161.063 102.589 161.175 101.85 161.174ZM114.542 160.968L114.56 150.059L116.179 150.061L116.176 151.709L116.29 151.709C116.49 151.17 116.85 150.732 117.372 150.397C117.893 150.062 118.481 149.895 119.134 149.896C119.257 149.896 119.411 149.898 119.596 149.903C119.78 149.908 119.92 149.916 120.015 149.925L120.012 151.63C119.955 151.616 119.825 151.594 119.621 151.565C119.422 151.532 119.212 151.515 118.989 151.515C118.459 151.514 117.985 151.624 117.568 151.846C117.156 152.063 116.829 152.366 116.587 152.754C116.349 153.137 116.23 153.575 116.229 154.067L116.218 160.97L114.542 160.968ZM126.225 161.214C125.174 161.212 124.267 160.979 123.506 160.514C122.749 160.044 122.165 159.389 121.755 158.55C121.349 157.707 121.147 156.727 121.149 155.609C121.151 154.492 121.356 153.507 121.764 152.656C122.178 151.799 122.752 151.133 123.486 150.656C124.226 150.174 125.088 149.934 126.073 149.935C126.641 149.936 127.202 150.032 127.756 150.222C128.309 150.412 128.813 150.721 129.267 151.148C129.721 151.57 130.082 152.129 130.351 152.826C130.62 153.522 130.753 154.38 130.751 155.397L130.75 156.108L122.341 156.094L122.344 154.645L129.048 154.656C129.049 154.041 128.927 153.491 128.681 153.008C128.441 152.524 128.096 152.143 127.646 151.863C127.202 151.583 126.676 151.442 126.07 151.441C125.403 151.44 124.825 151.605 124.337 151.935C123.853 152.261 123.481 152.687 123.219 153.212C122.958 153.737 122.827 154.3 122.826 154.902L122.824 155.868C122.823 156.691 122.964 157.39 123.247 157.963C123.535 158.532 123.934 158.966 124.445 159.265C124.956 159.559 125.55 159.707 126.227 159.708C126.668 159.709 127.065 159.648 127.421 159.526C127.781 159.398 128.091 159.209 128.352 158.959C128.613 158.704 128.815 158.387 128.957 158.008L130.576 158.465C130.405 159.014 130.117 159.497 129.714 159.913C129.311 160.324 128.813 160.645 128.221 160.876C127.629 161.103 126.963 161.215 126.225 161.214ZM141.898 150.103L137.846 161.006L136.142 161.003L132.125 150.087L133.944 150.09L136.941 158.788L137.054 158.788L140.08 150.1L141.898 150.103ZM144.093 161.016L144.111 150.107L145.787 150.109L145.769 161.019L144.093 161.016ZM144.966 148.29C144.639 148.289 144.358 148.178 144.121 147.955C143.89 147.732 143.774 147.464 143.774 147.152C143.775 146.839 143.891 146.572 144.124 146.35C144.361 146.128 144.643 146.017 144.969 146.017C145.296 146.018 145.575 146.13 145.807 146.352C146.043 146.575 146.161 146.843 146.161 147.156C146.16 147.468 146.041 147.735 145.804 147.958C145.572 148.18 145.292 148.291 144.966 148.29ZM153.412 161.258C152.361 161.257 151.455 161.023 150.693 160.558C149.936 160.088 149.353 159.434 148.942 158.595C148.536 157.751 148.334 156.771 148.336 155.653C148.338 154.536 148.543 153.551 148.952 152.7C149.365 151.844 149.939 151.177 150.674 150.7C151.413 150.218 152.275 149.978 153.26 149.98C153.828 149.981 154.389 150.076 154.943 150.266C155.497 150.457 156 150.765 156.454 151.192C156.908 151.614 157.269 152.174 157.538 152.87C157.807 153.567 157.941 154.424 157.939 155.442L157.938 156.152L149.529 156.138L149.531 154.689L156.236 154.7C156.237 154.085 156.114 153.535 155.869 153.052C155.628 152.569 155.283 152.187 154.834 151.907C154.389 151.627 153.864 151.486 153.258 151.485C152.59 151.484 152.012 151.649 151.524 151.98C151.041 152.306 150.668 152.731 150.407 153.256C150.146 153.781 150.014 154.345 150.014 154.946L150.012 155.912C150.011 156.736 150.152 157.434 150.435 158.008C150.723 158.576 151.122 159.01 151.633 159.309C152.144 159.604 152.738 159.752 153.415 159.753C153.855 159.753 154.253 159.692 154.608 159.57C154.968 159.443 155.279 159.254 155.54 159.003C155.8 158.748 156.002 158.431 156.145 158.053L157.763 158.51C157.592 159.059 157.305 159.541 156.902 159.957C156.499 160.368 156.001 160.69 155.409 160.921C154.816 161.147 154.151 161.26 153.412 161.258ZM162.951 161.047L159.645 150.132L161.406 150.135L163.751 158.491L163.864 158.491L166.207 150.143L167.997 150.146L170.285 158.473L170.398 158.473L172.77 150.153L174.531 150.156L171.19 161.06L169.542 161.057L167.169 152.673L166.999 152.672L164.599 161.049L162.951 161.047ZM184.47 152.616L182.964 153.039C182.87 152.788 182.731 152.544 182.546 152.307C182.367 152.065 182.121 151.866 181.809 151.709C181.496 151.553 181.096 151.474 180.609 151.473C179.941 151.472 179.385 151.625 178.939 151.932C178.498 152.234 178.277 152.62 178.277 153.089C178.276 153.505 178.427 153.835 178.729 154.077C179.032 154.319 179.505 154.521 180.149 154.683L181.768 155.083C182.743 155.321 183.469 155.685 183.946 156.173C184.424 156.657 184.662 157.28 184.661 158.042C184.659 158.667 184.479 159.226 184.118 159.717C183.762 160.209 183.264 160.597 182.625 160.88C181.985 161.163 181.241 161.304 180.394 161.302C179.281 161.3 178.361 161.057 177.632 160.573C176.904 160.089 176.443 159.383 176.251 158.455L177.842 158.059C177.993 158.647 178.279 159.088 178.7 159.382C179.125 159.676 179.681 159.824 180.368 159.825C181.149 159.826 181.77 159.662 182.229 159.331C182.694 158.995 182.927 158.593 182.927 158.125C182.928 157.746 182.796 157.428 182.531 157.172C182.267 156.911 181.86 156.717 181.311 156.588L179.493 156.159C178.494 155.92 177.761 155.552 177.293 155.054C176.83 154.552 176.599 153.924 176.6 153.171C176.601 152.556 176.775 152.011 177.121 151.538C177.473 151.066 177.949 150.695 178.551 150.426C179.157 150.157 179.844 150.023 180.611 150.024C181.691 150.026 182.538 150.264 183.153 150.739C183.772 151.213 184.211 151.839 184.47 152.616Z" fill="white"/>
<defs>
<linearGradient id="paint0_linear_235_541" x1="16.153" y1="-91.4545" x2="228.769" y2="288.878" gradientUnits="userSpaceOnUse">
<stop stop-color="#A1A2ED"/>
<stop offset="1" stop-color="#6465BF"/>
</linearGradient>
</defs>
</svg>
