<svg width="240" height="63" viewBox="0 0 240 63" fill="none" xmlns="http://www.w3.org/2000/svg">
<rect x="39" y="38" width="5" height="2" rx="1" fill="#6A6CC4"/>
<rect x="49" y="38" width="5" height="2" rx="1" fill="#6A6CC4"/>
<rect x="59" y="38" width="5" height="2" rx="1" fill="#6A6CC4"/>
<path d="M89.16 34.17V30.84H94.05C94.69 30.84 95.27 30.71 95.79 30.45C96.31 30.19 96.72 29.82 97.02 29.34C97.32 28.84 97.47 28.24 97.47 27.54C97.47 26.86 97.32 26.27 97.02 25.77C96.72 25.27 96.31 24.89 95.79 24.63C95.27 24.37 94.69 24.24 94.05 24.24H89.16V20.91H94.47C95.81 20.91 97.01 21.18 98.07 21.72C99.15 22.26 100 23.03 100.62 24.03C101.24 25.01 101.55 26.18 101.55 27.54C101.55 28.9 101.24 30.08 100.62 31.08C100 32.06 99.15 32.82 98.07 33.36C97.01 33.9 95.81 34.17 94.47 34.17H89.16ZM86.16 42V20.91H90.24V42H86.16ZM104.226 42V20.31H108.156V42H104.226ZM117.698 42.3C116.378 42.3 115.188 41.97 114.128 41.31C113.068 40.65 112.238 39.75 111.638 38.61C111.038 37.47 110.738 36.19 110.738 34.77C110.738 33.33 111.038 32.04 111.638 30.9C112.238 29.76 113.068 28.86 114.128 28.2C115.188 27.54 116.378 27.21 117.698 27.21C118.738 27.21 119.668 27.42 120.488 27.84C121.308 28.26 121.958 28.85 122.438 29.61C122.938 30.35 123.208 31.19 123.248 32.13V37.35C123.208 38.31 122.938 39.16 122.438 39.9C121.958 40.64 121.308 41.23 120.488 41.67C119.668 42.09 118.738 42.3 117.698 42.3ZM118.418 38.67C119.518 38.67 120.408 38.31 121.088 37.59C121.768 36.85 122.108 35.9 122.108 34.74C122.108 33.98 121.948 33.31 121.628 32.73C121.328 32.13 120.898 31.67 120.338 31.35C119.798 31.01 119.158 30.84 118.418 30.84C117.698 30.84 117.058 31.01 116.498 31.35C115.958 31.67 115.528 32.13 115.208 32.73C114.908 33.31 114.758 33.98 114.758 34.74C114.758 35.52 114.908 36.21 115.208 36.81C115.528 37.39 115.958 37.85 116.498 38.19C117.058 38.51 117.698 38.67 118.418 38.67ZM121.898 42V38.1L122.528 34.56L121.898 31.08V27.51H125.798V42H121.898ZM139.025 42V33.69C139.025 32.83 138.755 32.13 138.215 31.59C137.675 31.05 136.975 30.78 136.115 30.78C135.555 30.78 135.055 30.9 134.615 31.14C134.175 31.38 133.825 31.72 133.565 32.16C133.325 32.6 133.205 33.11 133.205 33.69L131.675 32.91C131.675 31.77 131.915 30.78 132.395 29.94C132.895 29.08 133.575 28.41 134.435 27.93C135.315 27.45 136.305 27.21 137.405 27.21C138.465 27.21 139.415 27.48 140.255 28.02C141.095 28.54 141.755 29.23 142.235 30.09C142.715 30.93 142.955 31.84 142.955 32.82V42H139.025ZM129.275 42V27.51H133.205V42H129.275ZM151.101 42.33C150.281 42.33 149.471 42.22 148.671 42C147.891 41.78 147.171 41.48 146.511 41.1C145.851 40.7 145.281 40.22 144.801 39.66L147.141 37.29C147.641 37.85 148.221 38.27 148.881 38.55C149.541 38.83 150.271 38.97 151.071 38.97C151.711 38.97 152.191 38.88 152.511 38.7C152.851 38.52 153.021 38.25 153.021 37.89C153.021 37.49 152.841 37.18 152.481 36.96C152.141 36.74 151.691 36.56 151.131 36.42C150.571 36.26 149.981 36.09 149.361 35.91C148.761 35.71 148.181 35.46 147.621 35.16C147.061 34.84 146.601 34.41 146.241 33.87C145.901 33.31 145.731 32.59 145.731 31.71C145.731 30.79 145.951 29.99 146.391 29.31C146.851 28.63 147.501 28.1 148.341 27.72C149.181 27.34 150.171 27.15 151.311 27.15C152.511 27.15 153.591 27.36 154.551 27.78C155.531 28.2 156.341 28.83 156.981 29.67L154.611 32.04C154.171 31.5 153.671 31.11 153.111 30.87C152.571 30.63 151.981 30.51 151.341 30.51C150.761 30.51 150.311 30.6 149.991 30.78C149.691 30.96 149.541 31.21 149.541 31.53C149.541 31.89 149.711 32.17 150.051 32.37C150.411 32.57 150.871 32.75 151.431 32.91C151.991 33.05 152.571 33.22 153.171 33.42C153.791 33.6 154.371 33.86 154.911 34.2C155.471 34.54 155.921 34.99 156.261 35.55C156.621 36.11 156.801 36.83 156.801 37.71C156.801 39.13 156.291 40.26 155.271 41.1C154.251 41.92 152.861 42.33 151.101 42.33ZM161.581 42V21.48H165.511V42H161.581ZM158.191 30.96V27.51H168.901V30.96H158.191ZM177.69 42.3C176.17 42.3 174.82 41.98 173.64 41.34C172.46 40.68 171.52 39.78 170.82 38.64C170.14 37.5 169.8 36.2 169.8 34.74C169.8 33.3 170.13 32.02 170.79 30.9C171.47 29.76 172.39 28.86 173.55 28.2C174.71 27.52 176 27.18 177.42 27.18C178.82 27.18 180.05 27.5 181.11 28.14C182.19 28.76 183.03 29.62 183.63 30.72C184.25 31.8 184.56 33.03 184.56 34.41C184.56 34.67 184.54 34.94 184.5 35.22C184.48 35.48 184.43 35.78 184.35 36.12L172.17 36.15V33.21L182.52 33.18L180.93 34.41C180.89 33.55 180.73 32.83 180.45 32.25C180.19 31.67 179.8 31.23 179.28 30.93C178.78 30.61 178.16 30.45 177.42 30.45C176.64 30.45 175.96 30.63 175.38 30.99C174.8 31.33 174.35 31.82 174.03 32.46C173.73 33.08 173.58 33.82 173.58 34.68C173.58 35.56 173.74 36.33 174.06 36.99C174.4 37.63 174.88 38.13 175.5 38.49C176.12 38.83 176.84 39 177.66 39C178.4 39 179.07 38.88 179.67 38.64C180.27 38.38 180.79 38 181.23 37.5L183.54 39.81C182.84 40.63 181.98 41.25 180.96 41.67C179.96 42.09 178.87 42.3 177.69 42.3ZM186.99 42V27.51H190.92V42H186.99ZM190.92 33.99L189.39 32.97C189.57 31.19 190.09 29.79 190.95 28.77C191.81 27.73 193.05 27.21 194.67 27.21C195.37 27.21 196 27.33 196.56 27.57C197.12 27.79 197.63 28.16 198.09 28.68L195.63 31.5C195.41 31.26 195.14 31.08 194.82 30.96C194.52 30.84 194.17 30.78 193.77 30.78C192.93 30.78 192.24 31.05 191.7 31.59C191.18 32.11 190.92 32.91 190.92 33.99Z" fill="#6A6CC4"/>
<path d="M34 25C34 18.9249 38.9249 14 45 14H57C63.0751 14 68 18.9249 68 25V37C68 43.0751 63.0751 48 57 48H45C38.9249 48 34 43.0751 34 37V25Z" stroke="#6A6CC4" stroke-width="2"/>
<path d="M49 13.8889C49 15.6849 46.7877 18.3363 45.3063 19.9104C44.5897 20.6718 43.4103 20.6718 42.6937 19.9104C41.2123 18.3363 39 15.6849 39 13.8889C39 11.1888 41.2386 9 44 9C46.7614 9 49 11.1888 49 13.8889Z" fill="white" stroke="#6A6CC4" stroke-width="1.8"/>
<rect x="39" y="28" width="5" height="2" rx="1" fill="#6A6CC4"/>
<rect x="39" y="33" width="5" height="2" rx="1" fill="#6A6CC4"/>
<rect x="49" y="28" width="5" height="2" rx="1" fill="#6A6CC4"/>
<rect x="49" y="33" width="5" height="2" rx="1" fill="#6A6CC4"/>
<rect x="59" y="28" width="5" height="2" rx="1" fill="#6A6CC4"/>
<rect x="59" y="33" width="5" height="2" rx="1" fill="#6A6CC4"/>
<rect x="55" y="11" width="4" height="7" rx="2" fill="white" stroke="#6A6CC4" stroke-width="2"/>
<path d="M44 14.5554C44.3068 14.5554 44.5556 14.3067 44.5556 13.9999C44.5556 13.6931 44.3068 13.4443 44 13.4443C43.6932 13.4443 43.4445 13.6931 43.4445 13.9999C43.4445 14.3067 43.6932 14.5554 44 14.5554Z" fill="#6A6CC4" stroke="#6A6CC4" stroke-width="1.8" stroke-linecap="round" stroke-linejoin="round"/>
</svg>
