<svg width="166" height="42" viewBox="0 0 166 42" fill="none" xmlns="http://www.w3.org/2000/svg">
<rect x="6.5" y="30.5" width="4" height="1" rx="0.5" fill="white" stroke="white"/>
<rect x="16.5" y="30.5" width="4" height="1" rx="0.5" fill="white" stroke="white"/>
<rect x="26.5" y="30.5" width="4" height="1" rx="0.5" fill="white" stroke="white"/>
<path d="M56.16 26.17V22.84H61.05C61.69 22.84 62.27 22.71 62.79 22.45C63.31 22.19 63.72 21.82 64.02 21.34C64.32 20.84 64.47 20.24 64.47 19.54C64.47 18.86 64.32 18.27 64.02 17.77C63.72 17.27 63.31 16.89 62.79 16.63C62.27 16.37 61.69 16.24 61.05 16.24H56.16V12.91H61.47C62.81 12.91 64.01 13.18 65.07 13.72C66.15 14.26 67 15.03 67.62 16.03C68.24 17.01 68.55 18.18 68.55 19.54C68.55 20.9 68.24 22.08 67.62 23.08C67 24.06 66.15 24.82 65.07 25.36C64.01 25.9 62.81 26.17 61.47 26.17H56.16ZM53.16 34V12.91H57.24V34H53.16ZM71.2263 34V12.31H75.1563V34H71.2263ZM84.6984 34.3C83.3784 34.3 82.1884 33.97 81.1284 33.31C80.0684 32.65 79.2384 31.75 78.6384 30.61C78.0384 29.47 77.7384 28.19 77.7384 26.77C77.7384 25.33 78.0384 24.04 78.6384 22.9C79.2384 21.76 80.0684 20.86 81.1284 20.2C82.1884 19.54 83.3784 19.21 84.6984 19.21C85.7384 19.21 86.6684 19.42 87.4884 19.84C88.3084 20.26 88.9584 20.85 89.4384 21.61C89.9384 22.35 90.2084 23.19 90.2484 24.13V29.35C90.2084 30.31 89.9384 31.16 89.4384 31.9C88.9584 32.64 88.3084 33.23 87.4884 33.67C86.6684 34.09 85.7384 34.3 84.6984 34.3ZM85.4184 30.67C86.5184 30.67 87.4084 30.31 88.0884 29.59C88.7684 28.85 89.1084 27.9 89.1084 26.74C89.1084 25.98 88.9484 25.31 88.6284 24.73C88.3284 24.13 87.8984 23.67 87.3384 23.35C86.7984 23.01 86.1584 22.84 85.4184 22.84C84.6984 22.84 84.0584 23.01 83.4984 23.35C82.9584 23.67 82.5284 24.13 82.2084 24.73C81.9084 25.31 81.7584 25.98 81.7584 26.74C81.7584 27.52 81.9084 28.21 82.2084 28.81C82.5284 29.39 82.9584 29.85 83.4984 30.19C84.0584 30.51 84.6984 30.67 85.4184 30.67ZM88.8984 34V30.1L89.5284 26.56L88.8984 23.08V19.51H92.7984V34H88.8984ZM106.025 34V25.69C106.025 24.83 105.755 24.13 105.215 23.59C104.675 23.05 103.975 22.78 103.115 22.78C102.555 22.78 102.055 22.9 101.615 23.14C101.175 23.38 100.825 23.72 100.565 24.16C100.325 24.6 100.205 25.11 100.205 25.69L98.6752 24.91C98.6752 23.77 98.9152 22.78 99.3952 21.94C99.8952 21.08 100.575 20.41 101.435 19.93C102.315 19.45 103.305 19.21 104.405 19.21C105.465 19.21 106.415 19.48 107.255 20.02C108.095 20.54 108.755 21.23 109.235 22.09C109.715 22.93 109.955 23.84 109.955 24.82V34H106.025ZM96.2752 34V19.51H100.205V34H96.2752ZM118.101 34.33C117.281 34.33 116.471 34.22 115.671 34C114.891 33.78 114.171 33.48 113.511 33.1C112.851 32.7 112.281 32.22 111.801 31.66L114.141 29.29C114.641 29.85 115.221 30.27 115.881 30.55C116.541 30.83 117.271 30.97 118.071 30.97C118.711 30.97 119.191 30.88 119.511 30.7C119.851 30.52 120.021 30.25 120.021 29.89C120.021 29.49 119.841 29.18 119.481 28.96C119.141 28.74 118.691 28.56 118.131 28.42C117.571 28.26 116.981 28.09 116.361 27.91C115.761 27.71 115.181 27.46 114.621 27.16C114.061 26.84 113.601 26.41 113.241 25.87C112.901 25.31 112.731 24.59 112.731 23.71C112.731 22.79 112.951 21.99 113.391 21.31C113.851 20.63 114.501 20.1 115.341 19.72C116.181 19.34 117.171 19.15 118.311 19.15C119.511 19.15 120.591 19.36 121.551 19.78C122.531 20.2 123.341 20.83 123.981 21.67L121.611 24.04C121.171 23.5 120.671 23.11 120.111 22.87C119.571 22.63 118.981 22.51 118.341 22.51C117.761 22.51 117.311 22.6 116.991 22.78C116.691 22.96 116.541 23.21 116.541 23.53C116.541 23.89 116.711 24.17 117.051 24.37C117.411 24.57 117.871 24.75 118.431 24.91C118.991 25.05 119.571 25.22 120.171 25.42C120.791 25.6 121.371 25.86 121.911 26.2C122.471 26.54 122.921 26.99 123.261 27.55C123.621 28.11 123.801 28.83 123.801 29.71C123.801 31.13 123.291 32.26 122.271 33.1C121.251 33.92 119.861 34.33 118.101 34.33ZM128.581 34V13.48H132.511V34H128.581ZM125.191 22.96V19.51H135.901V22.96H125.191ZM144.69 34.3C143.17 34.3 141.82 33.98 140.64 33.34C139.46 32.68 138.52 31.78 137.82 30.64C137.14 29.5 136.8 28.2 136.8 26.74C136.8 25.3 137.13 24.02 137.79 22.9C138.47 21.76 139.39 20.86 140.55 20.2C141.71 19.52 143 19.18 144.42 19.18C145.82 19.18 147.05 19.5 148.11 20.14C149.19 20.76 150.03 21.62 150.63 22.72C151.25 23.8 151.56 25.03 151.56 26.41C151.56 26.67 151.54 26.94 151.5 27.22C151.48 27.48 151.43 27.78 151.35 28.12L139.17 28.15V25.21L149.52 25.18L147.93 26.41C147.89 25.55 147.73 24.83 147.45 24.25C147.19 23.67 146.8 23.23 146.28 22.93C145.78 22.61 145.16 22.45 144.42 22.45C143.64 22.45 142.96 22.63 142.38 22.99C141.8 23.33 141.35 23.82 141.03 24.46C140.73 25.08 140.58 25.82 140.58 26.68C140.58 27.56 140.74 28.33 141.06 28.99C141.4 29.63 141.88 30.13 142.5 30.49C143.12 30.83 143.84 31 144.66 31C145.4 31 146.07 30.88 146.67 30.64C147.27 30.38 147.79 30 148.23 29.5L150.54 31.81C149.84 32.63 148.98 33.25 147.96 33.67C146.96 34.09 145.87 34.3 144.69 34.3ZM153.99 34V19.51H157.92V34H153.99ZM157.92 25.99L156.39 24.97C156.57 23.19 157.09 21.79 157.95 20.77C158.81 19.73 160.05 19.21 161.67 19.21C162.37 19.21 163 19.33 163.56 19.57C164.12 19.79 164.63 20.16 165.09 20.68L162.63 23.5C162.41 23.26 162.14 23.08 161.82 22.96C161.52 22.84 161.17 22.78 160.77 22.78C159.93 22.78 159.24 23.05 158.7 23.59C158.18 24.11 157.92 24.91 157.92 25.99Z" fill="white"/>
<path d="M1 17C1 10.9249 5.92487 6 12 6H24C30.0751 6 35 10.9249 35 17V29C35 35.0751 30.0751 40 24 40H12C5.92487 40 1 35.0751 1 29V17Z" stroke="white" stroke-width="2"/>
<path d="M16 5.88889C16 7.6849 13.7877 10.3363 12.3063 11.9104C11.5897 12.6718 10.4103 12.6718 9.69373 11.9104C8.21227 10.3363 6 7.6849 6 5.88889C6 3.18883 8.23857 1 11 1C13.7614 1 16 3.18883 16 5.88889Z" fill="#D5D5D5" stroke="white" stroke-width="1.8"/>
<rect x="6.5" y="20.5" width="4" height="1" rx="0.5" fill="white" stroke="white"/>
<rect x="6.5" y="25.5" width="4" height="1" rx="0.5" fill="white" stroke="white"/>
<rect x="16.5" y="20.5" width="4" height="1" rx="0.5" fill="white" stroke="white"/>
<rect x="16.5" y="25.5" width="4" height="1" rx="0.5" fill="white" stroke="white"/>
<rect x="26.5" y="20.5" width="4" height="1" rx="0.5" fill="white" stroke="white"/>
<rect x="26.5" y="25.5" width="4" height="1" rx="0.5" fill="white" stroke="white"/>
<rect x="22" y="3" width="4" height="7" rx="2" fill="#D4D4D4" stroke="white" stroke-width="2"/>
<path d="M10.9999 6.55545C11.3067 6.55545 11.5554 6.30672 11.5554 5.99989C11.5554 5.69307 11.3067 5.44434 10.9999 5.44434C10.6931 5.44434 10.4443 5.69307 10.4443 5.99989C10.4443 6.30672 10.6931 6.55545 10.9999 6.55545Z" fill="#F8F8F8"/>
</svg>
